<svg viewBox="0 0 400 200" version="1.1" xmlns="http://www.w3.org/2000/svg" xmlns:xlink="http://www.w3.org/1999/xlink" style="fill: var(--Text-3); display: block;">
  <path d="M285.020249,134.8335 C277.044986,134.8335 269.699856,132.143906 263.828705,127.630967 C269.770482,120.003569 273.320139,110.419768 273.320139,100 C273.320139,89.5802321 269.770482,79.9955138 263.828705,72.3690328 C269.699856,67.8551765 277.044069,65.1655825 285.020249,65.1655825 C304.249852,65.1655825 319.838992,80.7617407 319.838992,100 C319.838992,119.238259 304.249852,134.8335 285.020249,134.8335 M207.148844,127.630967 C213.090622,120.004486 216.640279,110.419768 216.640279,100 C216.640279,89.5802321 213.090622,79.9955138 207.148844,72.3681152 C213.019078,67.8551765 220.364209,65.1655825 228.340389,65.1655825 C236.316569,65.1655825 243.660782,67.8551765 249.531934,72.3690328 C243.589239,79.9964314 240.040499,89.5802321 240.040499,100 C240.040499,110.419768 243.589239,120.003569 249.531934,127.630967 C243.660782,132.143906 236.315652,134.8335 228.340389,134.8335 C220.364209,134.8335 213.019078,132.143906 207.148844,127.630967 M150.468066,127.630967 C156.409844,120.003569 159.959501,110.419768 159.959501,100 C159.959501,89.5802321 156.409844,79.9955138 150.468066,72.3681152 C156.339218,67.8551765 163.683431,65.1655825 171.659611,65.1655825 C179.635791,65.1655825 186.980005,67.8551765 192.851156,72.3681152 C186.908461,79.9955138 183.359721,89.5802321 183.359721,100 C183.359721,110.419768 186.908461,120.003569 192.851156,127.630967 C186.980005,132.143906 179.635791,134.8335 171.659611,134.8335 C163.683431,134.8335 156.339218,132.143906 150.468066,127.630967 M80.1610081,100 C80.1610081,80.760823 95.7501482,65.1655825 114.979751,65.1655825 C122.955931,65.1655825 130.300144,67.8551765 136.171295,72.3681152 C130.2286,79.9955138 126.679861,89.5802321 126.679861,100 C126.679861,110.419768 130.2286,120.004486 136.170378,127.630967 C130.300144,132.143906 122.955931,134.8335 114.979751,134.8335 C95.7501482,134.8335 80.1610081,119.238259 80.1610081,100 M143.320139,120.223801 C139.24583,114.520688 136.841786,107.543894 136.841786,100 C136.841786,92.4561064 139.246747,85.4783947 143.320139,79.7752809 C147.393531,85.4783947 149.798493,92.4561064 149.798493,100 C149.798493,107.543894 147.393531,114.520688 143.320139,120.223801 M200,120.223801 C195.925691,114.520688 193.521646,107.543894 193.521646,100 C193.521646,92.4561064 195.925691,85.4783947 200,79.7752809 C204.072475,85.4783947 206.477436,92.4561064 206.477436,100 C206.477436,107.543894 204.072475,114.520688 200,120.223801 M256.679861,120.223801 C252.606469,114.520688 250.201507,107.543894 250.201507,100 C250.201507,92.4561064 252.606469,85.4793124 256.679861,79.7761985 C260.753253,85.4793124 263.157297,92.4561064 263.157297,100 C263.157297,107.543894 260.753253,114.520688 256.679861,120.223801 M285.020249,55 C274.275887,55 264.415728,58.7742409 256.680778,65.0628072 C248.943993,58.7742409 239.083834,55 228.340389,55 C217.596026,55 207.735868,58.7742409 200,65.0618895 C192.264132,58.7742409 182.403974,55 171.659611,55 C160.915248,55 151.05509,58.7742409 143.320139,65.0618895 C135.584272,58.7742409 125.724113,55 114.979751,55 C90.1376542,55 70,75.14672 70,100 C70,124.85328 90.1376542,145 114.979751,145 C125.724113,145 135.584272,141.225759 143.320139,134.937193 C151.05509,141.225759 160.915248,145 171.659611,145 C182.403974,145 192.264132,141.225759 200,134.937193 C207.735868,141.225759 217.596026,145 228.340389,145 C239.083834,145 248.943993,141.225759 256.680778,134.937193 C264.415728,141.225759 274.275887,145 285.020249,145 C309.862346,145 330,124.85328 330,100 C330,75.14672 309.862346,55 285.020249,55" id="audi"></path>
</svg>