<svg viewBox="0 0 400 200" version="1.1" xmlns="http://www.w3.org/2000/svg" xmlns:xlink="http://www.w3.org/1999/xlink" style="fill: var(--Text-3); display: block;">
  <path d="M181.91379,68.0865391 L181.91379,84.6707945 C174.617787,84.6707945 167.363067,84.4657736 160.129594,84.7684525 C157.094753,84.8958323 153.855323,85.5897495 151.144668,86.9157135 C144.8364,90.0019463 142.350368,96.3181693 144.080573,103.30162 C145.720322,109.922342 151.411787,114.81009 158.123163,114.469804 C164.628735,114.139223 171.094239,113.01464 178.020525,112.186064 L184.418035,126.749832 L184.418035,126.749832 L183.448633,127.105794 C170.043019,131.977447 156.818813,134.616165 143.376956,128.210455 C130.508478,122.077416 122.966604,105.905023 126.124684,92.0448772 C129.191701,78.580216 142.663019,68.154475 157.12875,68.0926048 C165.313532,68.0574237 173.498314,68.0865391 181.91379,68.0865391 Z M124.638225,68.0898752 L124.638225,84.6650321 L119.142117,84.6544195 C118.539218,84.6541575 117.938049,84.6549 117.337744,84.6573456 L115.538559,84.6704912 C110.080216,84.7311483 104.575128,84.4072395 99.1738515,85.0071381 C90.9817844,85.9169945 85.5434757,92.8197715 86.2398075,100.565076 C87.0041333,109.077692 93.3864663,114.989332 101.911219,114.477993 C107.126118,114.165002 112.295486,113.048305 117.477603,112.245205 C118.351812,112.110546 119.188989,111.738112 120.304819,111.394793 L127.063548,126.758021 L127.063548,126.758021 L126.08989,127.114355 C112.625194,131.98981 99.3330447,134.577005 85.7589925,128.144642 C69.5794475,120.479405 60.6406602,94.820849 75.7590126,78.9559866 C82.1996262,72.1963603 90.0353317,68.1056461 99.6334184,68.0923015 L106.731719,68.0864647 C112.653843,68.0852331 118.601586,68.0898752 124.638225,68.0898752 Z M291.582281,68.0022257 C296.905243,68.1380976 302.234275,68.0501448 307.905706,68.0501448 L297.789772,94.3735029 L297.789772,94.3735029 C293.402336,105.786741 288.929907,117.168438 284.693028,128.637481 C283.818231,131.007298 282.642593,131.745869 280.309212,131.698855 L280.087039,131.692172 C275.137438,131.498676 270.172052,131.521119 265.220629,131.687926 C263.067282,131.760108 262.052229,131.07165 261.270904,129.041457 C255.981332,115.292921 250.506598,101.615353 245.220669,87.8656036 C244.423722,85.7922633 243.389648,85.0350485 241.253099,85.0591957 L241.028108,85.0644591 C235.787711,85.2470369 230.536993,85.1220833 224.830351,85.1220833 L224.830351,131.359771 L208.423754,131.359771 L208.423754,84.8363884 L187.80092,84.8363884 L187.80092,68.0798668 L190.827262,68.0798668 L216.074846,68.0950165 C228.698774,68.1007086 241.32279,68.095395 253.946368,68.0422594 C256.151318,68.0331609 257.099592,68.7574065 257.875452,70.749992 C261.049721,78.9059445 264.284969,87.038443 267.528312,95.1676166 L272.512776,107.6579 C272.779197,108.305264 273.094743,109.006541 273.600894,110.1862 L274.542069,107.84294 C274.626821,107.628333 274.706882,107.422068 274.78417,107.217234 L280.291269,92.3448338 C282.100377,87.4550667 283.905677,82.5638632 285.699087,77.6684283 L288.379276,70.3217529 C288.982723,68.6597486 289.719123,67.9549132 291.582281,68.0022257 Z M332,107.572911 L332,130.416978 L308.871707,130.416978 L308.871707,107.572911 L332,107.572911 Z"></path>
</svg>