<svg viewBox="0 0 75 24" width="75" height="24">
    <g>
        <path
            fill="var(--Text-1)"
            d="M70.5,8H75V4.6h-4.5V2h-4.1v13.1c0,2.9,1.8,5.1,4,6.2c0.9,0.4,1.9,0.6,2.8,0.6l0,0l0,0H75v-0.2v-3.2h-1.8c-1.6,0-2.8-1.2-2.8-2.7C70.5,15.8,70.5,8,70.5,8z"></path>
        <rect x="28.8" y="18.2" fill="var(--Style)" width="3.5" height="3.4"></rect>
        <path
            fill="var(--Text-1)"
            d="M7.4,2H0v3.4h1.8v12.9H0v3.4h7.4c2.8,0,5.2-1.2,6.6-3.4c1-1.2,1.5-3,1.5-4.8v-3.4c0-1.8-0.6-3.4-1.5-4.8C12.5,3.2,10.1,2,7.4,2z M11.2,13.8c0,2.4-1.9,4.4-4.4,4.4h-1v-13h1c2.5,0,4.5,2,4.5,4.4v4.2H11.2z"></path>
        <path
            fill="var(--Text-1)"
            d="M28.8,4.6c-1.6,0-2.9,0.6-4,1.4c-1,1-1.6,2.6-1.6,2.6v-4h-5.8V8h1.8v10.2h-1.8v3.4h7.5v-3.4h-1.8V14c0-1.6,0.8-2.9,1.8-3.9c0.9-0.9,2.1-1.3,3.5-1.3H29V4.6C28.9,4.6,28.8,4.6,28.8,4.6z"></path>
        <path
            fill="var(--Text-1)"
            d="M44.1,5.1c-1-0.6-2.2-1-3.6-1l0,0c-2.6,0-4.9,1.4-6,3.6c0,0.1-0.1,0.1-0.1,0.2l0,0c-0.4,0.9-0.8,2-0.8,3V15c0,1.1,0.3,2.1,0.8,3l0,0c0,0.1,0.1,0.1,0.1,0.2c1.1,2.1,3.5,3.6,6,3.6l0,0c3.6,0,6.6-2.9,6.9-6.2h-4.1c0,1.6-1.2,2.8-2.8,2.8s-2.8-1.2-2.8-2.8v-5c-0.1-1.6,1.1-2.9,2.8-2.9s2.8,1.2,2.8,2.9h4v-6h-3.1v0.5H44.1z"></path>
        <path
            fill="var(--Text-1)"
            d="M63,9.4c0,0,0-3.8-3.9-4.9c-0.7-0.2-1.6-0.2-2.6-0.2c-0.9,0-1.8,0.1-2.2,0.2c-0.2,0.1-0.6,0.2-0.9,0.2c-3,1.4-3.6,4.6-3.6,4.6h4c0,0,0.4-1.9,2.8-1.9c2.1,0,2.5,1.4,2.5,2v1c0,0-0.2,1.4-3.4,1.4c-0.9,0-1.6,0-2.5,0.2c-2.1,0.6-4,2-4,4.8c0,0.4,0,0.9,0.1,1.2c0.3,1.6,1.2,2.9,2.9,3.4c0.6,0.2,1.2,0.2,2,0.2c0.9,0,1.8-0.1,2.5-0.2c0.9-0.2,1.6-0.8,2.1-1.1v1.1h5.7v-3.2h-1.8L63,9.4L63,9.4z M57.8,18.2c-0.4,0.1-0.9,0.2-1.6,0.2c-0.7,0-1.1-0.1-1.8-0.2c-0.8-0.2-1.1-0.9-1.1-1.6c0-1.2,1.1-2,3.5-2c1.5,0,2.1-0.6,2.1-0.6v2.8C58.9,16.9,58.8,17.8,57.8,18.2z"></path>
    </g>
</svg>