<svg viewBox="0 0 400 200" version="1.1" xmlns="http://www.w3.org/2000/svg" xmlns:xlink="http://www.w3.org/1999/xlink" style="fill: var(--Text-3); display: block;">
  <path d="M200,164 C164.813853,164 136,135.463203 136,100 C136,64.8138528 164.813853,36 200,36 C235.186147,36 264,64.8138528 264,100 C264,135.463203 235.463203,164 200,164 Z M200,39.047619 C166.199134,39.047619 139.047619,66.4761905 139.047619,100 C139.047619,133.800866 166.47619,160.952381 200,160.952381 C233.800866,160.952381 260.952381,133.52381 260.952381,100 C260.952381,66.4761905 233.800866,39.047619 200,39.047619 Z M254.30303,118.285714 L254.025974,118.285714 L253.748918,118.008658 C253.748918,118.008658 255.965368,111.636364 255.965368,104.4329 C255.965368,96.6753247 252.640693,91.965368 248.761905,91.965368 C246.268398,91.965368 244.606061,93.6277056 244.606061,96.3982684 C244.606061,101.108225 250.424242,101.662338 250.424242,111.91342 C250.424242,116.069264 249.593074,120.225108 248.207792,124.658009 C241.558442,146.822511 220.779221,157.073593 200.277056,157.073593 C190.857143,157.073593 184.207792,155.134199 182.268398,154.30303 C182.268398,154.30303 181.991342,154.025974 182.268398,154.025974 L182.545455,153.748918 C183.376623,154.025974 189.194805,155.965368 196.121212,155.965368 C203.878788,155.965368 208.588745,152.640693 208.588745,148.761905 C208.588745,146.268398 206.649351,144.329004 204.155844,144.329004 C199.445887,144.329004 198.891775,150.424242 188.640693,150.424242 C184.207792,150.424242 180.329004,149.593074 175.619048,148.207792 C153.454545,141.281385 142.926407,120.502165 142.926407,100 C142.926407,90.025974 145.69697,81.991342 145.69697,81.991342 L145.974026,81.991342 L146.251082,82.2683983 C145.974026,83.0995671 144.034632,88.9177489 144.034632,95.8441558 C144.034632,103.601732 147.359307,108.311688 151.238095,108.311688 C153.454545,108.311688 155.393939,106.649351 155.393939,104.155844 C155.393939,99.4458874 149.575758,98.8917749 149.575758,88.6406926 C149.575758,84.2077922 150.406926,80.3290043 151.792208,75.6190476 C158.995671,53.4545455 179.774892,42.9264069 200,42.9264069 C209.419913,42.9264069 217.731602,45.6969697 218.008658,45.974026 L218.008658,46.2510823 L217.731602,46.5281385 C217.731602,46.5281385 212.190476,44.3116883 204.155844,44.3116883 C196.398268,44.3116883 191.688312,47.6363636 191.688312,51.5151515 C191.688312,53.7316017 193.350649,55.6709957 196.121212,55.6709957 C200.831169,55.6709957 201.385281,49.8528139 211.636364,49.8528139 C216.069264,49.8528139 219.948052,50.6839827 224.658009,52.0692641 C246.822511,58.7186147 257.073593,79.7748918 257.073593,100 C257.350649,110.251082 254.30303,118.285714 254.30303,118.285714 Z M223.82684,103.047619 C217.731602,103.047619 213.298701,107.480519 213.298701,112.744589 C213.298701,117.177489 216.069264,120.779221 219.393939,120.779221 C220.502165,120.779221 221.887446,119.948052 221.887446,118.562771 C221.887446,116.34632 218.839827,115.792208 219.116883,112.190476 C219.393939,109.974026 221.333333,108.311688 223.549784,108.311688 C227.705628,108.311688 229.922078,112.467532 229.922078,116.623377 C229.645022,123.272727 224.935065,127.705628 219.116883,127.705628 C211.636364,127.705628 206.926407,120.502165 206.926407,113.021645 C206.926407,101.662338 214.406926,97.2294372 218.285714,96.1212121 C218.285714,96.1212121 228.536797,98.0606061 228.25974,93.3506494 C228.25974,91.4112554 225.212121,90.5800866 222.995671,90.5800866 C220.502165,90.5800866 218.285714,91.4112554 218.285714,91.4112554 C217.177489,90.8571429 216.069264,89.4718615 215.792208,88.0865801 C222.995671,82.5454545 228.25974,77.2813853 228.25974,71.1861472 C228.25974,67.8614719 226.04329,65.0909091 222.164502,65.0909091 C214.961039,65.0909091 209.419913,74.2337662 209.419913,82.5454545 C209.419913,83.9307359 209.419913,85.3160173 209.69697,86.7012987 C204.987013,90.025974 201.662338,92.2424242 195.5671,95.8441558 C195.5671,95.012987 195.844156,93.0735931 196.121212,90.5800866 C198.337662,88.3636364 201.108225,84.7619048 201.108225,82.2683983 C201.108225,81.1601732 200.277056,80.0519481 198.891775,80.0519481 C195.290043,80.0519481 192.796537,85.3160173 191.965368,89.1948052 C190.30303,91.1341991 187.255411,93.6277056 184.484848,93.6277056 C182.268398,93.6277056 181.714286,91.6883117 181.437229,90.8571429 C188.08658,88.6406926 196.398268,79.2207792 196.398268,70.9090909 C196.398268,69.2467532 195.5671,65.0909091 190.30303,65.0909091 C182.268398,65.0909091 175.619048,77.004329 175.619048,86.1471861 C172.848485,86.1471861 171.74026,83.0995671 171.74026,80.8831169 C171.74026,78.6666667 172.571429,76.1731602 172.571429,75.6190476 C172.571429,74.7878788 172.294372,73.95671 171.186147,73.95671 C168.415584,73.95671 167.030303,77.5584416 167.030303,81.7142857 C167.307359,87.2554113 170.909091,90.8571429 175.896104,91.4112554 C176.727273,94.7359307 179.497835,98.0606061 183.376623,98.0606061 C185.593074,98.0606061 188.640693,97.2294372 190.580087,95.5670996 C190.30303,96.6753247 190.30303,97.7835498 190.025974,98.8917749 C182.268398,103.047619 176.450216,105.818182 171.463203,110.528139 C167.307359,114.12987 165.090909,119.116883 165.090909,122.995671 C165.090909,128.25974 168.415584,133.246753 175.341991,133.246753 C183.376623,133.246753 189.748918,126.597403 192.796537,117.731602 C194.181818,113.575758 194.735931,107.203463 195.012987,101.662338 C203.047619,96.952381 206.926407,94.4588745 211.359307,91.4112554 C211.91342,92.2424242 212.467532,93.0735931 213.021645,93.6277056 C209.419913,95.5670996 200.554113,101.108225 200.554113,114.12987 C200.554113,123.272727 206.649351,133.52381 219.116883,133.52381 C229.090909,133.52381 236.017316,125.212121 236.017316,117.177489 C235.74026,109.69697 231.584416,103.047619 223.82684,103.047619 Z M175.064935,127.982684 C172.294372,127.982684 170.632035,126.320346 170.632035,123.549784 C170.632035,115.792208 181.160173,108.588745 189.194805,104.709957 C187.809524,115.238095 184.207792,127.428571 175.064935,127.982684 Z M180.883117,85.8701299 C180.883117,80.0519481 186.701299,68.969697 190.30303,70.0779221 C194.458874,71.4632035 186.701299,82.8225108 180.883117,85.8701299 Z M214.406926,83.3766234 C214.406926,76.1731602 219.393939,68.969697 221.887446,70.3549784 C225.212121,71.7402597 219.670996,78.6666667 214.406926,83.3766234 Z" id="ge"></path>
</svg>