<svg width="90px" height="24px" viewBox="0 0 90 24" version="1.1" 
    xmlns="http://www.w3.org/2000/svg" 
    xmlns:xlink="http://www.w3.org/1999/xlink">
    <path d="M48.5,3 C50.1886276,3 51.7469128,3.55806178 53.0004871,4.49981661 L53,4 L57,4 L57,11 L52,11 L52,10 C52,8.34314575 50.6568542,7 49,7 C47.4023191,7 46,8.05038882 46,10 L46,17 C46,18.6568542 47.3431458,20 49,20 C50.5976809,20 51.9036609,18.75108 51.9949073,17.1762728 L52,17 L52,16 L57,16 C57,20.418278 53.418278,24 49,24 C44.581722,24 41,20.418278 41,16 L41,10.5 C41,6.35786438 44.3578644,3 48.5,3 Z M84,0 L84,4 L90,4 L90,8 L84,8 L84,16 C84,18.1421954 85.6839685,19.8910789 87.8003597,19.9951047 L88,20 L90,20 L90,24 L87,24 C82.581722,24 79,20.418278 79,16 L79,0 L84,0 Z M70,3 C73.3137085,3 76,5.6862915 76,9 L76,20 L77,20 L77,24 L71,24 L71.0015996,21.8973499 C69.7309694,23.1948573 67.9595103,24 66,24 L65,24 C61.6862915,24 59,21.3137085 59,18 C59,14.6862915 61.6862915,12 65,12 L71,12 L71,9 C71,7.9456382 70.1841222,7.08183488 69.1492623,7.00548574 L69,7 L67.5,7 C65.7367468,7 64.2780307,8.30387842 64.0354373,10.0000497 L60.016375,10.0004142 C60.2734656,6.09120245 63.5257383,3 67.5,3 L70,3 Z M11,0 C15.418278,0 19,3.581722 19,8 L19,15 C19,19.418278 15.418278,23 11,23 L0,23 L0,19 L2,19 L2,4 L0,4 L0,0 L11,0 Z M38,19 L38,23 L33,23 L33,19 L38,19 Z M35,3 L35,8 L34,8 C31.6104084,8 29.465518,9.04769092 27.9996198,10.708782 L28,19 L30,19 L30,23 L21,23 L21,19 L23,19 L23,8 L21,8 L21,4 L28,4 L28.0004884,7.12311277 C29.3653547,4.6641782 31.9883325,3 35,3 Z M71,15 L66.5,15 C65.1192881,15 64,16.1192881 64,17.5 C64,18.8254834 65.0315359,19.9100387 66.3356243,19.9946823 L66.5,20 L67.5,20 C69.3685634,20 70.8951264,18.5357224 70.9948211,16.6920352 L71,16.5 L71,15 Z M10,4 L7,4 L7,19 L10,19 C12.1421954,19 13.8910789,17.3160315 13.9951047,15.1996403 L14,15 L14,8 C14,5.790861 12.209139,4 10,4 Z" fill="var(--Text-1)"></path>
</svg>