<svg width="100" height="24" viewBox="0 0 100 24" 
  xmlns="http://www.w3.org/2000/svg">
  <path d="M7.84225 0H0V23.662H7.50423C13.9944 23.662 18.862 18.5915 18.862 11.4592C18.862 5.10423 14.1296 0 7.84225 0ZM7.36901 19.6394H4.19155V4.02254H7.70704C11.6958 4.02254 14.7042 7.43662 14.7042 11.493C14.7042 16.3268 11.5606 19.6394 7.36901 19.6394Z" fill="var(--Text-1)"/>
  <path d="M24.4841 7.77465C21.408 7.77465 20.9348 9.70141 20.9348 11.6958V23.662H24.9911V12.9803C24.9911 11.9662 25.532 11.6282 26.208 11.6282H29.5207L30.4334 7.77465H24.4841Z" fill="var(--Text-1)"/>
  <path d="M31.8063 24C33.2261 24 34.1725 23.0197 34.1725 21.6C34.1725 20.1465 33.2261 19.1662 31.8063 19.1662C30.3866 19.1662 29.4739 20.1465 29.4739 21.6C29.4739 23.0197 30.3866 24 31.8063 24Z" fill="var(--Text-1)"/>
  <path d="M45.9985 24C48.9394 24 52.4886 22.4789 53.3337 18.862L49.5478 17.8479C48.9732 19.4704 47.8577 20.5183 45.9309 20.4845C43.4633 20.4507 41.8408 18.1859 41.8408 15.6507C41.8408 13.1493 43.2943 10.8507 46.1337 10.8507C47.7563 10.8507 49.0408 11.8986 49.5478 13.5549L53.2323 12.6761C52.4548 9.19437 49.3788 7.40282 45.9647 7.40282C41.2323 7.40282 37.7506 10.9521 37.7506 15.6507C37.7506 20.4169 41.0971 24 45.9985 24Z" fill="var(--Text-1)"/>
  <path d="M62.4013 7.40282C58.9534 7.40282 56.0802 9.09296 55.0661 11.831L58.852 12.4394C59.2239 11.3577 60.576 10.5465 62.0295 10.5465C63.9563 10.5465 65.4774 11.8986 65.4774 13.4873V15.2113C64.2605 14.4 62.7732 13.9268 60.7112 13.9268C57.0943 13.9268 54.3563 16.0563 54.3563 19.1324C54.3563 22.0056 56.7901 24 59.9675 24C62.1309 24 64.2267 22.9521 65.4774 21.262V23.662H69.5337V13.6563C69.5337 10.1746 66.4577 7.40282 62.4013 7.40282ZM61.5901 20.8563C59.7647 20.8563 58.3788 20.1465 58.3788 18.9634C58.3788 17.6113 59.7647 16.7662 61.5563 16.7662C62.8408 16.7662 64.2605 17.138 65.4436 17.8479C65.2408 19.6056 63.6182 20.8563 61.5901 20.8563Z" fill="var(--Text-1)"/>
  <path d="M76.3584 17.2394V11.6282H80.212L81.0908 7.77465H76.3584V3.78592H72.3021V17.6789C72.3021 21.1268 75.0063 23.6958 78.5218 23.6958H80.7866V19.8085H78.9951C77.4739 19.8085 76.3584 18.693 76.3584 17.2394Z" fill="var(--Text-1)"/>
  <path d="M89.584 2.376L90.808 2.064C90.52 0.828 89.416 0 88.072 0C86.416 0 85.336 0.96 85.336 2.4C85.336 5.292 89.704 4.356 89.704 6.228C89.704 6.936 89.08 7.452 88.12 7.452C87.172 7.452 86.344 6.804 86.272 5.928L85 6.252C85.156 7.644 86.464 8.64 88.12 8.64C89.848 8.64 90.988 7.632 90.988 6.192C90.988 3.348 86.62 4.236 86.62 2.364C86.62 1.668 87.208 1.188 88.072 1.188C88.828 1.188 89.416 1.68 89.584 2.376Z" fill="var(--Text-2)"/>
  <path d="M97.2384 0.12V3.528H93.2424V0.12H91.9224V8.52H93.2424V4.752H97.2384V8.52H98.5464V0.12H97.2384Z" fill="var(--Text-2)"/>
</svg>
