<svg viewBox="0 0 192 32" fill="none" 
  xmlns="http://www.w3.org/2000/svg">
  <path d="M8.31601 24.392C11.032 24.392 13.412 22.964 14.644 20.752L11.508 18.96C10.948 20.108 9.74401 20.808 8.28801 20.808C7.19601 20.808 6.30001 20.444 5.60001 19.744C4.90001 19.016 4.53601 18.092 4.53601 17C4.53601 14.76 6.13201 13.164 8.28801 13.164C9.71601 13.164 10.92 13.892 11.48 15.04L14.588 13.22C13.44 11.008 11.032 9.608 8.31601 9.608C6.21601 9.608 4.45201 10.308 3.02401 11.736C1.62401 13.164 0.924011 14.9 0.924011 17C0.924011 19.1 1.62401 20.836 3.02401 22.264C4.45201 23.692 6.21601 24.392 8.31601 24.392ZM21.2613 24.392C23.1653 24.392 24.5653 23.748 25.4333 22.432V24H29.0453V10H25.4333V17.56C25.4333 19.884 24.2293 21.032 22.3533 21.032C20.6733 21.032 19.5813 20.024 19.5813 18.148V10H15.9693V18.596C15.9693 20.416 16.4733 21.816 17.4533 22.852C18.4613 23.888 19.7213 24.392 21.2613 24.392ZM35.4947 24V17.308C35.4947 15.964 35.9147 15.012 36.7827 14.424C37.6507 13.836 38.6587 13.612 39.7507 13.752V9.72C37.8467 9.72 36.1667 10.616 35.4947 12.408V10H31.8827V24H35.4947ZM43.176 8.32C44.408 8.32 45.416 7.312 45.416 6.108C45.416 4.904 44.408 3.868 43.176 3.868C41.972 3.868 40.964 4.904 40.964 6.108C40.964 7.312 41.972 8.32 43.176 8.32ZM44.996 24V10H41.384V24H44.996ZM58.5573 7.984V5.044H50.4373V7.984H58.5573ZM54.4973 24.392C56.5693 24.392 58.3333 23.692 59.7613 22.264C61.1893 20.836 61.9173 19.072 61.9173 17C61.9173 14.928 61.1893 13.192 59.7613 11.764C58.3333 10.336 56.5693 9.608 54.4973 9.608C52.4253 9.608 50.6613 10.336 49.2333 11.764C47.8053 13.192 47.1053 14.928 47.1053 17C47.1053 19.072 47.8053 20.836 49.2333 22.264C50.6613 23.692 52.4253 24.392 54.4973 24.392ZM54.4973 20.864C53.4053 20.864 52.5093 20.5 51.7813 19.772C51.0813 19.044 50.7173 18.12 50.7173 17C50.7173 15.88 51.0813 14.956 51.7813 14.228C52.5093 13.5 53.4053 13.136 54.4973 13.136C55.5893 13.136 56.4853 13.5 57.2133 14.228C57.9413 14.956 58.3053 15.88 58.3053 17C58.3053 18.12 57.9413 19.044 57.2133 19.772C56.4853 20.5 55.5893 20.864 54.4973 20.864ZM68.6187 24.392C70.2147 24.392 71.5587 24 72.6227 23.244C73.7147 22.46 74.2467 21.34 74.2467 19.912C74.2747 16.916 71.6147 15.936 69.5707 15.516C68.1427 15.152 67.0227 14.732 67.0227 13.976C67.0227 13.276 67.7227 12.828 68.6467 12.828C69.6827 12.828 70.4387 13.304 70.8867 14.256L73.9667 12.576C72.8747 10.672 70.9147 9.608 68.6467 9.608C67.1347 9.608 65.8747 10 64.8387 10.812C63.8307 11.596 63.3267 12.688 63.3267 14.06C63.3267 16.972 65.9307 17.84 68.0027 18.372C69.4307 18.736 70.5507 19.156 70.5507 19.912C70.5507 20.724 69.9067 21.116 68.6187 21.116C67.1907 21.116 66.2947 20.5 65.8747 19.296L62.7387 21.06C63.7747 23.272 65.7347 24.392 68.6187 24.392ZM77.896 8.32C79.128 8.32 80.136 7.312 80.136 6.108C80.136 4.904 79.128 3.868 77.896 3.868C76.692 3.868 75.684 4.904 75.684 6.108C75.684 7.312 76.692 8.32 77.896 8.32ZM79.716 24V10H76.104V24H79.716ZM90.5613 24V20.724C88.4893 20.836 87.3973 20.808 87.3973 19.296V13.472H90.5613V10H87.3973V6.08L83.7853 7.172V10H81.3493V13.472H83.7853V19.296C83.7853 23.132 85.6053 24.56 90.5613 24ZM100.847 24L105.943 10H102.079L98.9707 19.408L95.3307 10H91.3827L97.1227 23.552C96.4507 25.456 95.3867 26.268 93.4547 26.24V29.6C97.0387 29.796 99.3907 28.032 100.847 24ZM108.416 23.664C109.34 22.74 109.34 21.228 108.416 20.304C107.492 19.38 105.98 19.38 105.056 20.304C104.132 21.228 104.132 22.74 105.056 23.664C105.98 24.588 107.492 24.588 108.416 23.664Z" fill="var(--Text-1)"/>
  <path d="M116.629 24.392C118.589 24.392 120.101 23.72 121.165 22.348V24H124.777V4.4H121.165V11.652C120.101 10.28 118.589 9.608 116.629 9.608C114.753 9.608 113.129 10.336 111.785 11.764C110.469 13.192 109.797 14.928 109.797 17C109.797 19.072 110.469 20.836 111.785 22.264C113.129 23.692 114.753 24.392 116.629 24.392ZM117.301 20.948C116.181 20.948 115.257 20.584 114.501 19.856C113.773 19.1 113.409 18.148 113.409 17C113.409 15.852 113.773 14.9 114.501 14.172C115.257 13.416 116.181 13.052 117.301 13.052C118.421 13.052 119.345 13.416 120.073 14.172C120.801 14.9 121.165 15.852 121.165 17C121.165 18.148 120.801 19.1 120.073 19.856C119.345 20.584 118.421 20.948 117.301 20.948ZM134.559 24.392C137.247 24.392 139.291 23.384 140.663 21.396L137.751 19.716C137.051 20.64 135.987 21.116 134.615 21.116C132.459 21.116 131.143 20.248 130.667 18.484H141.223C141.307 17.952 141.363 17.476 141.363 17C141.363 14.9 140.691 13.164 139.347 11.736C138.031 10.308 136.323 9.608 134.279 9.608C132.123 9.608 130.331 10.308 128.959 11.736C127.587 13.136 126.887 14.9 126.887 17C126.887 19.128 127.587 20.892 128.987 22.292C130.387 23.692 132.235 24.392 134.559 24.392ZM137.751 15.684H130.611C131.031 13.892 132.347 12.856 134.279 12.856C135.931 12.856 137.331 13.78 137.751 15.684ZM147.784 24.392C149.38 24.392 150.724 24 151.788 23.244C152.88 22.46 153.412 21.34 153.412 19.912C153.44 16.916 150.78 15.936 148.736 15.516C147.308 15.152 146.188 14.732 146.188 13.976C146.188 13.276 146.888 12.828 147.812 12.828C148.848 12.828 149.604 13.304 150.052 14.256L153.132 12.576C152.04 10.672 150.08 9.608 147.812 9.608C146.3 9.608 145.04 10 144.004 10.812C142.996 11.596 142.492 12.688 142.492 14.06C142.492 16.972 145.096 17.84 147.168 18.372C148.596 18.736 149.716 19.156 149.716 19.912C149.716 20.724 149.072 21.116 147.784 21.116C146.356 21.116 145.46 20.5 145.04 19.296L141.904 21.06C142.94 23.272 144.9 24.392 147.784 24.392ZM157.061 8.32C158.293 8.32 159.301 7.312 159.301 6.108C159.301 4.904 158.293 3.868 157.061 3.868C155.857 3.868 154.849 4.904 154.849 6.108C154.849 7.312 155.857 8.32 157.061 8.32ZM158.881 24V10H155.269V24H158.881ZM168.663 29.992C170.679 29.992 172.387 29.432 173.815 28.284C175.243 27.136 175.971 25.484 175.971 23.328V10H172.443V11.736C171.379 10.308 169.895 9.608 167.963 9.608C166.003 9.608 164.351 10.308 163.007 11.708C161.663 13.108 160.991 14.788 160.991 16.776C160.991 18.764 161.663 20.472 162.979 21.872C164.323 23.244 165.975 23.944 167.963 23.944C169.895 23.944 171.379 23.244 172.443 21.816V23.328C172.443 25.54 171.043 26.772 168.775 26.772C167.039 26.772 165.807 26.128 165.107 24.812L162.027 26.576C163.259 28.816 165.639 29.992 168.663 29.992ZM168.523 20.612C166.255 20.612 164.603 19.016 164.603 16.776C164.603 15.684 164.967 14.76 165.695 14.06C166.451 13.332 167.375 12.968 168.523 12.968C169.671 12.968 170.595 13.332 171.323 14.06C172.079 14.76 172.443 15.684 172.443 16.776C172.443 19.016 170.791 20.612 168.523 20.612ZM182.392 24V16.44C182.392 14.116 183.596 12.968 185.472 12.968C187.152 12.968 188.244 13.976 188.244 15.852V24H191.856V15.404C191.856 13.584 191.352 12.184 190.344 11.148C189.364 10.112 188.104 9.608 186.564 9.608C184.66 9.608 183.26 10.252 182.392 11.568V10H178.78V24H182.392Z" fill="var(--Text-2)" fill-opacity="0.6"/>
</svg>
