<svg width="100" height="24" viewBox="0 0 100 24">
  <path d="M8.07887 0H0V23.662H7.74084C14.231 23.662 19.0986 18.5915 19.0986 11.4592C19.0986 5.10423 14.3662 0 8.07887 0ZM7.60563 18.9296H4.93521V4.7324H7.94366C11.493 4.7324 14.1634 7.84225 14.1634 11.493C14.1634 15.9211 11.3577 18.9296 7.60563 18.9296Z" fill="var(--Text-1)"/>
  <path d="M24.1886 7.70704C20.6393 7.70704 20.6393 9.83662 20.6393 11.6282V23.662H25.3717V13.5211C25.3717 12.507 25.9463 12.3042 26.5548 12.3042H29.428L30.5097 7.70704H24.1886Z" fill="var(--Text-1)"/>
  <path d="M31.8481 24C33.3692 24 34.3833 22.9521 34.3833 21.431C34.3833 19.9099 33.3692 18.862 31.8481 18.862C30.3607 18.862 29.3805 19.9099 29.3805 21.431C29.3805 22.9521 30.3607 24 31.8481 24Z" fill="var(--Text-1)"/>
  <path d="M46.0732 24C48.9127 24 53.0028 22.5465 53.7465 18.4563L49.1831 17.5099C48.7099 18.9972 47.7972 19.9437 46.0056 19.9099C43.8423 19.8761 42.4563 17.7127 42.4563 15.6169C42.4563 13.5211 43.6394 11.3239 46.3437 11.3239C47.7296 11.3239 48.9803 12.338 49.2507 13.9268L53.7127 13.0817C53.0366 9.16056 49.5887 7.33521 46.0732 7.33521C41.2732 7.33521 37.6563 10.8845 37.6563 15.6169C37.6563 20.3831 41.0366 24 46.0732 24Z" fill="var(--Text-1)"/>
  <path d="M62.6411 7.36901C59.1932 7.36901 56.3876 8.89014 55.1369 11.6282L59.3622 12.3718C59.7679 11.5268 60.951 10.8845 62.2017 10.8845C63.9256 10.8845 65.2101 12.1352 65.2101 13.5211V14.907C63.9594 14.231 62.4721 13.893 60.6805 13.893C57.0636 13.893 54.3594 15.9887 54.3594 19.0986C54.3594 22.0394 56.7256 24 59.7679 24C61.9312 24 63.9594 22.9521 65.2101 21.262V23.662H69.9425V13.7577C69.9425 10.2423 66.7989 7.36901 62.6411 7.36901ZM61.8298 20.4845C60.2411 20.4845 59.058 19.9099 59.058 18.8282C59.058 17.6451 60.2073 16.969 61.7284 16.969C62.7087 16.969 64.027 17.2056 65.2101 17.7465V18.0507C64.9735 19.4704 63.6214 20.4845 61.8298 20.4845Z" fill="var(--Text-1)"/>
  <path d="M76.8372 16.6986V12.3042H80.2175L81.2654 7.70704H76.8372V3.75211H72.1048V17.3746C72.1048 20.9915 74.9105 23.6958 78.595 23.6958H80.9274V19.0986H79.271C77.8851 19.0986 76.8372 18.0507 76.8372 16.6986Z" fill="var(--Text-1)"/>
  <path d="M89.104 2.52L90.856 2.076C90.556 0.84 89.428 0 88.084 0C86.428 0 85.348 0.996 85.348 2.448C85.348 5.544 89.32 4.488 89.32 6.144C89.32 6.672 88.852 7.02 88.132 7.02C87.424 7.02 86.788 6.42 86.728 5.712L85 6.144C85.156 7.536 86.404 8.64 88.132 8.64C89.86 8.64 91.012 7.668 91.012 6.204C91.012 3.18 87.028 4.152 87.028 2.508C87.028 2.004 87.46 1.62 88.084 1.62C88.6 1.62 88.96 2.004 89.104 2.52Z" fill="var(--Text-2)"/>
  <path d="M96.8458 0.12V3.42H93.5338V0.12H91.7818V8.52H93.5338V5.1H96.8458V8.52H98.5978V0.12H96.8458Z" fill="var(--Text-2)"/>
</svg>
