<?xml version="1.0" encoding="UTF-8"?>
<svg viewBox="0 0 429 484" version="1.1" 
    xmlns="http://www.w3.org/2000/svg" 
    xmlns:xlink="http://www.w3.org/1999/xlink">
    <defs>
        <radialGradient cx="50%" cy="43.6130031%" fx="50%" fy="43.6130031%" r="50%" gradientTransform="translate(0.500000,0.436130),scale(0.323150,1.000000),rotate(90.000000),scale(1.000000,3.401328),translate(-0.500000,-0.436130)" id="radialGradient-1">
            <stop stop-color="#000000" stop-opacity="0" offset="0%"></stop>
            <stop stop-color="#000000" stop-opacity="0.0661604021" offset="100%"></stop>
        </radialGradient>
        <radialGradient cx="75.994595%" cy="17.7783779%" fx="75.994595%" fy="17.7783779%" r="165.010673%" gradientTransform="translate(0.759946,0.177784),scale(1.000000,0.499839),rotate(90.000000),scale(1.000000,0.474745),translate(-0.759946,-0.177784)" id="radialGradient-2">
            <stop stop-color="#FAE1C2" offset="0%"></stop>
            <stop stop-color="#F3CEAC" offset="60.1865365%"></stop>
            <stop stop-color="#DEA984" offset="89.606989%"></stop>
            <stop stop-color="#D2956E" offset="100%"></stop>
        </radialGradient>
        <radialGradient cx="50%" cy="37.4239323%" fx="50%" fy="37.4239323%" r="82.292264%" gradientTransform="translate(0.500000,0.374239),scale(1.000000,0.760413),rotate(90.000000),scale(1.000000,0.638350),translate(-0.500000,-0.374239)" id="radialGradient-3">
            <stop stop-color="#FAE1C2" offset="0%"></stop>
            <stop stop-color="#F3CEAC" offset="60.1865365%"></stop>
            <stop stop-color="#DEA984" offset="94.1660336%"></stop>
            <stop stop-color="#D2956E" offset="100%"></stop>
        </radialGradient>
        <linearGradient x1="79.4264778%" y1="80.5736302%" x2="15.5866135%" y2="15.7357006%" id="linearGradient-4">
            <stop stop-color="#DDB606" offset="0%"></stop>
            <stop stop-color="#360C06" offset="100%"></stop>
        </linearGradient>
        <circle id="path-5" cx="273.379873" cy="199.953315" r="21"></circle>
        <filter x="-6.0%" y="-6.0%" width="111.9%" height="111.9%" filterUnits="objectBoundingBox" id="filter-6">
            <feMorphology radius="1" operator="erode" in="SourceAlpha" result="shadowSpreadInner1"></feMorphology>
            <feGaussianBlur stdDeviation="2" in="shadowSpreadInner1" result="shadowBlurInner1"></feGaussianBlur>
            <feOffset dx="0" dy="0" in="shadowBlurInner1" result="shadowOffsetInner1"></feOffset>
            <feComposite in="shadowOffsetInner1" in2="SourceAlpha" operator="arithmetic" k2="-1" k3="1" result="shadowInnerInner1"></feComposite>
            <feColorMatrix values="0 0 0 0 0.203921569   0 0 0 0 0.0509803922   0 0 0 0 0  0 0 0 1 0" type="matrix" in="shadowInnerInner1"></feColorMatrix>
        </filter>
        <filter x="-25.0%" y="-25.0%" width="150.0%" height="150.0%" filterUnits="objectBoundingBox" id="filter-7">
            <feGaussianBlur stdDeviation="1" in="SourceGraphic"></feGaussianBlur>
        </filter>
        <circle id="path-8" cx="153.379873" cy="199.953315" r="21"></circle>
        <filter x="-6.0%" y="-6.0%" width="111.9%" height="111.9%" filterUnits="objectBoundingBox" id="filter-9">
            <feMorphology radius="1" operator="erode" in="SourceAlpha" result="shadowSpreadInner1"></feMorphology>
            <feGaussianBlur stdDeviation="2" in="shadowSpreadInner1" result="shadowBlurInner1"></feGaussianBlur>
            <feOffset dx="0" dy="0" in="shadowBlurInner1" result="shadowOffsetInner1"></feOffset>
            <feComposite in="shadowOffsetInner1" in2="SourceAlpha" operator="arithmetic" k2="-1" k3="1" result="shadowInnerInner1"></feComposite>
            <feColorMatrix values="0 0 0 0 0.203921569   0 0 0 0 0.0509803922   0 0 0 0 0  0 0 0 1 0" type="matrix" in="shadowInnerInner1"></feColorMatrix>
        </filter>
        <filter x="-25.0%" y="-25.0%" width="150.0%" height="150.0%" filterUnits="objectBoundingBox" id="filter-10">
            <feGaussianBlur stdDeviation="1" in="SourceGraphic"></feGaussianBlur>
        </filter>
        <radialGradient cx="50%" cy="0%" fx="50%" fy="0%" r="454.348586%" gradientTransform="translate(0.500000,0.000000),scale(0.116205,1.000000),rotate(9.531847),translate(-0.500000,-0.000000)" id="radialGradient-11">
            <stop stop-color="#535356" offset="0%"></stop>
            <stop stop-color="#0B0B0C" offset="100%"></stop>
        </radialGradient>
        <radialGradient cx="32.333002%" cy="26.8748855%" fx="32.333002%" fy="26.8748855%" r="219.305088%" gradientTransform="translate(0.323330,0.268749),scale(1.000000,0.317701),rotate(101.943324),scale(1.000000,0.374384),translate(-0.323330,-0.268749)" id="radialGradient-12">
            <stop stop-color="#454545" offset="0%"></stop>
            <stop stop-color="#000000" offset="100%"></stop>
        </radialGradient>
        <radialGradient cx="35.4186087%" cy="9.60795962%" fx="35.4186087%" fy="9.60795962%" r="87.9869657%" gradientTransform="translate(0.354186,0.096080),scale(0.832849,1.000000),rotate(10.203196),scale(1.000000,0.306771),translate(-0.354186,-0.096080)" id="radialGradient-13">
            <stop stop-color="#454545" offset="0%"></stop>
            <stop stop-color="#1F1E1E" offset="84.4872887%"></stop>
            <stop stop-color="#000000" offset="100%"></stop>
            <stop stop-color="#000000" offset="100%"></stop>
        </radialGradient>
        <radialGradient cx="50%" cy="37.6311677%" fx="50%" fy="37.6311677%" r="100%" gradientTransform="translate(0.500000,0.376312),scale(0.534263,1.000000),rotate(90.000000),translate(-0.500000,-0.376312)" id="radialGradient-14">
            <stop stop-color="#BFBFBF" offset="0%"></stop>
            <stop stop-color="#262626" offset="100%"></stop>
        </radialGradient>
        <linearGradient x1="88.3189265%" y1="82.8820353%" x2="11.58713%" y2="82.8820353%" id="linearGradient-15">
            <stop stop-color="#3C2A2A" offset="0%"></stop>
            <stop stop-color="#6F5454" offset="49.2954832%"></stop>
            <stop stop-color="#3C2A2A" offset="100%"></stop>
        </linearGradient>
        <filter x="-13.8%" y="-11.9%" width="127.6%" height="123.8%" filterUnits="objectBoundingBox" id="filter-16">
            <feOffset dx="0" dy="2" in="SourceAlpha" result="shadowOffsetOuter1"></feOffset>
            <feGaussianBlur stdDeviation="4" in="shadowOffsetOuter1" result="shadowBlurOuter1"></feGaussianBlur>
            <feColorMatrix values="0 0 0 0 0   0 0 0 0 0   0 0 0 0 0  0 0 0 0.5 0" type="matrix" in="shadowBlurOuter1" result="shadowMatrixOuter1"></feColorMatrix>
            <feMerge>
                <feMergeNode in="shadowMatrixOuter1"></feMergeNode>
                <feMergeNode in="SourceGraphic"></feMergeNode>
            </feMerge>
        </filter>
        <linearGradient x1="50%" y1="0%" x2="50%" y2="100%" id="linearGradient-17">
            <stop stop-color="#6F5454" offset="0%"></stop>
            <stop stop-color="#3C2A2A" offset="100%"></stop>
        </linearGradient>
        <linearGradient x1="50%" y1="0%" x2="50%" y2="100%" id="linearGradient-18">
            <stop stop-color="#AD8C8C" offset="0%"></stop>
            <stop stop-color="#9A7777" offset="100%"></stop>
        </linearGradient>
        <circle id="path-19" cx="72.5" cy="95" r="72.5"></circle>
        <filter x="-2.1%" y="-2.1%" width="104.1%" height="104.1%" filterUnits="objectBoundingBox" id="filter-20">
            <feGaussianBlur stdDeviation="2" in="SourceAlpha" result="shadowBlurInner1"></feGaussianBlur>
            <feOffset dx="0" dy="2" in="shadowBlurInner1" result="shadowOffsetInner1"></feOffset>
            <feComposite in="shadowOffsetInner1" in2="SourceAlpha" operator="arithmetic" k2="-1" k3="1" result="shadowInnerInner1"></feComposite>
            <feColorMatrix values="0 0 0 0 1   0 0 0 0 1   0 0 0 0 1  0 0 0 0.5 0" type="matrix" in="shadowInnerInner1"></feColorMatrix>
        </filter>
    </defs>
    <g id="页面-1" stroke="none" stroke-width="1" fill="none" fill-rule="evenodd">
        <g id="编组">
            <path d="M389.588967,388.741719 C407.167727,405.512165 420.136088,436.042406 428.494049,480.332444 L429,483.061272 L0,483.061272 C8.33651169,437.29427 21.4735226,405.854419 39.4110327,388.741719 C57.9373321,371.067304 102.041962,353.704682 151.018951,344.603934 C159.427439,370.370767 184.445086,389.061272 214,389.061272 C243.621709,389.061272 268.685618,370.286189 277.037373,344.429987 C326.390344,353.481627 370.943659,370.953767 389.588967,388.741719 Z" id="aaa" fill="var(--Style)"></path>
            <path d="M389.588967,389.110435 C407.167727,405.88088 420.136088,436.411122 428.494049,480.70116 L429,483.429987 L0,483.429987 C8.33651169,437.662985 21.4735226,406.223134 39.4110327,389.110435 C57.9373321,371.43602 102.041962,354.073398 151.018951,344.97265 C159.427439,370.739482 184.445086,389.429987 214,389.429987 C243.621709,389.429987 268.685618,370.654905 277.037373,344.798703 C326.390344,353.850343 370.943659,371.322483 389.588967,389.110435 Z" id="形状结合" fill="url(#radialGradient-1)"></path>
            <path d="M83.8993555,187.417961 C68.9183511,183.447347 60.1205616,184.84078 57.5059868,191.59826 C53.5841245,201.734479 73.8065471,259.618064 82.2478741,262.401653 C87.8754254,264.257379 93.0565914,259.611076 95.7953274,253.637519 L83.8993555,187.417961 Z" id="路径" fill="url(#radialGradient-2)"></path>
            <path d="M358.892389,187.417961 C343.911385,183.447347 335.113595,184.84078 332.499021,191.59826 C328.577158,201.734479 348.799581,259.618064 357.240908,262.401653 C362.868459,264.257379 368.049625,259.611076 370.788361,253.637519 L358.892389,187.417961 Z" id="路径备份" fill="url(#radialGradient-2)" transform="translate(351.394181, 224.014481) scale(-1, 1) translate(-351.394181, -224.014481) "></path>
            <path d="M214.409888,373.429987 C282.683664,373.429987 321.74866,330.826785 343.792993,220.462954 C365.837326,110.099123 343.792993,11.4299873 214.409888,11.4299873 C85.0267825,11.4299873 59.1265305,101.919788 85.0267825,220.462954 C110.927035,339.00612 146.136112,373.429987 214.409888,373.429987 Z" id="椭圆形备份" fill="url(#radialGradient-3)"></path>
            <path d="M305.749801,215.109609 C309.271606,208.829543 309.271606,182.173053 282.754529,176.28306 C251.588262,169.974808 239.973604,200.455792 241.070442,208.512905 C242.156313,216.489447 256.827619,221.765881 272.958232,222.930386 L273.447473,222.964414 C289.76955,224.056627 302.227997,221.389676 305.749801,215.109609 Z" id="路径-2备份" fill="#FFFFFF" transform="translate(274.189937, 199.316428) scale(-1, 1) translate(-274.189937, -199.316428) "></path>
            <g id="椭圆形">
                <use fill="url(#linearGradient-4)" fill-rule="evenodd" xlink:href="#path-5"></use>
                <use fill="black" fill-opacity="1" filter="url(#filter-6)" xlink:href="#path-5"></use>
            </g>
            <circle id="椭圆形" fill="#250900" cx="273.379873" cy="199.953315" r="13"></circle>
            <circle id="椭圆形备份-4" fill="#FFFFFF" filter="url(#filter-7)" cx="267.379873" cy="188.953315" r="6"></circle>
            <path d="M183.749801,215.109609 C187.271606,208.829543 187.271606,182.173053 160.754529,176.28306 C129.588262,169.974808 117.973604,200.455792 119.070442,208.512905 C120.156313,216.489447 134.827619,221.765881 150.958232,222.930386 L151.447473,222.964414 C167.76955,224.056627 180.227997,221.389676 183.749801,215.109609 Z" id="路径-2" fill="#FFFFFF"></path>
            <g id="椭圆形备份-5">
                <use fill="url(#linearGradient-4)" fill-rule="evenodd" xlink:href="#path-8"></use>
                <use fill="black" fill-opacity="1" filter="url(#filter-9)" xlink:href="#path-8"></use>
            </g>
            <circle id="椭圆形备份-6" fill="#250900" cx="153.379873" cy="199.953315" r="13"></circle>
            <circle id="椭圆形备份-7" fill="#FFFFFF" filter="url(#filter-10)" cx="147.379873" cy="188.953315" r="6"></circle>
            <path d="M247.350207,155.512956 C245.534472,143.416444 261.414953,143.34889 277.922105,145.507527 C294.429257,147.666164 305.851524,156.657158 302.50406,162.733126 C299.156596,168.809094 288.381947,162.117736 277.922105,160.674983 C267.462264,159.232231 249.165943,167.609468 247.350207,155.512956 Z M179.737807,155.512956 C177.922071,167.609468 159.62575,159.232231 149.165909,160.674983 C138.706068,162.117736 127.931418,168.809094 124.583954,162.733126 C121.23649,156.657158 132.658757,147.666164 149.165909,145.507527 L150.155449,145.380759 C166.301202,143.356404 181.517228,143.658375 179.737807,155.512956 Z" id="形状" fill="url(#radialGradient-11)"></path>
            <g id="编组-16" transform="translate(66.000000, 0.000000)">
                <path d="M20.2094821,215.766618 C28.5,199.953315 21.3884817,176.898693 27.4688535,158.003009 C33.5492254,139.107325 40.6733315,135.233553 45.3356396,120.610014 C49.9979477,105.986475 57.2977878,87.7497717 49.7199242,71.4078063 C42.1420606,55.065841 39.6295972,51.4078063 33.5492254,51.4078063 C27.4688535,51.4078063 -2.84002616,73.2704057 0.21579608,120.610014 C3.27161832,167.949623 11.9189642,231.579921 20.2094821,215.766618 Z" id="路径-3" fill="url(#radialGradient-12)"></path>
                <path d="M33.4115586,64.0902164 C42.8971596,84.8560472 83.2516601,105.740625 134.913096,111.407806 C186.574531,117.074987 239.75875,101.491353 246.191309,107.93514 C252.623868,114.378928 247.396395,117.64128 255.095599,135.41247 C262.794803,153.183659 267.133085,154.835438 268.989566,167.723857 C270.846047,180.612276 269.550045,214.845494 276.470163,219.429987 C283.390281,224.014481 291.237076,176.681412 295,131.429987 C298.762924,86.1785626 276.682781,0 152.260282,0 C48.6880191,0 23.9259576,43.3243855 33.4115586,64.0902164 Z" id="路径-4" fill="url(#radialGradient-13)"></path>
            </g>
            <path d="M120.965322,235.757711 C139.218571,248.209951 155.214933,256.767376 168.954406,261.429987 L160.344917,277.119651 C150.316467,281.599946 142.063164,286.723522 135.585008,292.490379 C129.556307,297.857131 123.124286,305.508603 116.288947,315.444795 C113.795396,310.762206 111.391341,305.739255 109.066752,300.363419 C115.950196,292.07905 123.720896,285.054442 132.379873,279.283118 C136.552447,276.502042 141.275007,273.78289 146.547554,271.125664 C136.404381,266.003661 126.035788,259.221543 115.442571,250.779645 C100.676737,239.012526 86.5610769,217.10913 73.0955895,185.069458 C71.9519196,177.915526 70.8900853,170.0288 69.9378119,161.853835 C86.1443269,198.971911 103.153514,223.606619 120.965322,235.757711 Z M353.653176,190.214191 L352.728006,192.309914 C340.209593,220.431204 327.137536,239.921115 313.511835,250.779645 C302.918618,259.221543 292.550025,266.003661 282.406852,271.125664 C287.679399,273.78289 292.401959,276.502042 296.574533,279.283118 C305.225844,285.049333 312.99045,292.066612 319.86835,300.334956 C317.500902,305.575016 315.02709,310.500552 312.44288,315.12436 C305.689224,305.341211 299.332046,297.79833 293.369398,292.490379 C287.08755,286.898275 279.136509,281.911057 269.516276,277.528722 L268.609489,277.119651 L260,261.429987 C273.739474,256.767376 289.735835,248.209951 307.989084,235.757711 C325.216793,224.005087 341.693659,200.574167 357.41968,165.464952 C356.271022,174.382617 355.000404,182.794929 353.653176,190.214191 Z" id="形状" fill="url(#radialGradient-14)"></path>
            <g id="编组-14" transform="translate(126.000000, 210.429987)">
                <path d="M115.135946,15.4175132 L170.487523,103.980036 C180.439674,119.903478 175.598986,140.879791 159.675544,150.831942 C154.27187,154.209239 148.027851,156 141.65558,156 L34.3444198,156 C15.5667383,156 0.344419811,140.777681 0.344419811,122 C0.344419811,115.62773 2.13518094,109.38371 5.51247748,103.980036 L60.8640543,15.4175132 C70.2307849,0.430744167 89.9731971,-4.12519711 104.959966,5.24153352 C109.080578,7.81691616 112.560563,11.2969009 115.135946,15.4175132 Z" id="三角形" fill="url(#linearGradient-15)"></path>
                <g id="编组-15" filter="url(#filter-16)" transform="translate(15.000000, 28.500000)">
                    <path d="M72.5,0.5 C112.540644,0.5 145,32.9593556 145,73 L144.996,72.519 L145,72.5198675 L145,93.6456954 L142.017919,93.6461744 C133.126906,123.628732 105.367607,145.5 72.5,145.5 C39.6323927,145.5 11.8730938,123.628732 2.9820806,93.6461744 L0,93.6456954 L0,72.5198675 C0.260554872,32.6994452 32.6199857,0.5 72.5,0.5 Z" id="形状结合" fill="url(#linearGradient-17)"></path>
                    <g id="椭圆形备份-2">
                        <use fill="url(#linearGradient-18)" fill-rule="evenodd" xlink:href="#path-19"></use>
                        <use fill="black" fill-opacity="1" filter="url(#filter-20)" xlink:href="#path-19"></use>
                    </g>
                    <circle id="椭圆形备份-2" stroke-opacity="0.559959572" stroke="#664C4C" stroke-width="2" fill="#FFFFFF" cx="72.5" cy="95" r="63.5"></circle>
                </g>
            </g>
        </g>
    </g>
</svg>