<svg viewBox="0 0 86 86" fill="none" xmlns="http://www.w3.org/2000/svg">
<rect x="4.5" y="4.5" width="77" height="77" rx="38.5" stroke="var(--Text-1)"/>
<rect x="29" y="49.25" width="28" height="28" rx="14" fill="var(--Text-3)" fill-opacity="0.8"/>
<path fill-rule="evenodd" clip-rule="evenodd" d="M43 29.125C35.268 29.125 29 35.393 29 43.125C29 47.0746 30.6355 50.6422 33.2662 53.1875C35.7856 50.75 39.2176 49.25 43 49.25C46.7824 49.25 50.2144 50.75 52.7338 53.1875C55.3645 50.6422 57 47.0746 57 43.125C57 35.393 50.732 29.125 43 29.125Z" fill="var(--Text-3)" fill-opacity="0.4"/>
<path fill-rule="evenodd" clip-rule="evenodd" d="M43 9C35.268 9 29 15.268 29 23C29 26.9496 30.6355 30.5172 33.2662 33.0625C35.7856 30.625 39.2176 29.125 43 29.125C46.7824 29.125 50.2144 30.625 52.7338 33.0625C55.3645 30.5172 57 26.9496 57 23C57 15.268 50.732 9 43 9Z" fill="var(--Text-3)" fill-opacity="0.2"/>
</svg>
