<svg viewBox="0 0 400 200" version="1.1" xmlns="http://www.w3.org/2000/svg" xmlns:xlink="http://www.w3.org/1999/xlink" style="fill: var(--Text-3); display: block;">
  <path d="M175.502805,99.886715 C175.502805,124.343303 156.312022,143.771434 131.86662,144 C107.649679,144 88.0019724,124.571869 88.0019724,100.115281 C87.7759412,75.9188696 107.00543,56.420767 130.866847,56.0086521 L131.638158,56.0019961 C155.626637,55.7734299 175.274344,75.2015606 175.502805,99.886715 Z M289.047587,130.056773 L289.047587,135.542363 C289.047587,139.427989 285.851408,141.942218 282.193736,141.942218 L270.316012,141.942218 L270.316012,122.97122 L281.965274,122.97122 C286.077585,122.742654 289.047587,126.171147 289.047587,130.056773 Z M220.052838,122.971906 C222.228663,122.971906 224.197268,124.630436 224.37982,126.960277 L224.39361,127.314664 L224.39361,129.828893 C224.39361,132.005714 222.735838,133.975219 220.407063,134.157855 L220.052838,134.171652 L220.052838,133.943085 L219.367453,133.943085 L224.622072,141.485771 L220.052838,141.485771 L214.569757,133.943085 L212.970525,131.428857 L212.513601,130.743158 L212.28514,130.286025 L216.854374,130.286025 L216.854374,130.514592 L217.082836,130.743158 L219.367453,130.743158 C220.189915,130.743158 220.642269,130.187742 220.724515,129.576784 L220.738223,129.37176 L220.738223,128.457495 C220.738223,127.840367 220.183061,127.223238 219.572383,127.105983 L219.367453,127.086098 L213.198987,127.086098 L213.198987,126.628965 L210.000523,126.628965 L210.000523,141.942904 L206.116674,141.942904 L206.116674,122.971906 L220.052838,122.971906 Z M252.038162,122.742654 L263.004324,135.77093 L263.004324,122.742654 L266.659711,122.742654 L266.659711,141.713652 L263.004324,141.713652 L252.038162,129.142508 L252.038162,141.713652 L248.382774,141.713652 L248.382774,122.742654 L252.038162,122.742654 Z M309.838516,122.971448 L309.838516,126.628508 L296.587737,126.628508 C295.970891,126.628508 295.354044,127.183924 295.236843,127.794882 L295.216967,127.999906 L295.216967,129.371303 C295.216967,129.988432 295.772129,130.605561 296.382807,130.722815 L296.587737,130.742701 L299.100816,130.742701 L299.100816,130.285568 L305.954667,130.285568 C308.353515,130.285568 310.336034,132.159906 310.511307,134.517027 L310.523901,134.856893 L310.523901,137.142556 C310.523901,139.324324 308.858585,141.506093 306.521466,141.699928 L306.183129,141.71388 L292.246965,141.71388 L292.246965,138.056821 L305.497744,138.056821 C306.11459,138.056821 306.731437,137.501405 306.848638,136.890447 L306.868514,136.685423 L306.868514,135.314026 C306.868514,134.491187 306.313352,134.038626 305.702674,133.956342 L305.497744,133.942628 L303.213127,133.942628 L303.213127,134.399761 L296.359276,134.399761 C293.960428,134.399761 291.977909,132.733683 291.802636,130.395494 L291.790041,130.057002 L291.790041,127.542773 C291.790041,125.361005 293.455357,123.179236 295.991179,122.985401 L296.359276,122.971448 L309.838516,122.971448 Z M203.1469,122.742654 L203.1469,126.62828 L196.293049,126.62828 L196.293049,141.713652 L192.180738,141.713652 L192.180738,126.62828 L184.869964,126.62828 L184.869964,122.742654 L203.1469,122.742654 Z M245.183397,122.743339 L245.183397,126.400399 L231.704156,126.400399 L231.704156,130.514592 L243.584165,130.514592 L243.584165,133.943085 L231.704156,133.943085 L231.704156,137.828711 L245.183397,137.828711 L245.183397,141.714338 L227.820307,141.714338 L227.820307,122.743339 L245.183397,122.743339 Z M281.508808,126.171833 L277.396497,126.171833 L277.396497,126.628965 L274.198033,126.628965 L274.198033,138.057278 L281.508808,138.057278 L281.828691,138.043228 C283.413461,137.90366 284.757586,136.738265 284.919411,135.175101 L284.935733,134.85735 L284.935733,129.600327 L284.921643,129.280297 C284.772095,127.589102 283.444013,126.171833 281.508808,126.171833 Z M127.297843,73.6018255 C112.447832,76.1160542 102.395517,90.7442938 105.593981,103.77257 C110.333168,124.770003 129.785303,122.126738 134.663137,119.415478 L134.837079,119.315074 C135.979387,118.629376 137.121696,118.857942 136.436311,120.229339 C135.750926,122.515002 133.466309,128.000592 128.668613,132.571916 C123.413994,138.057506 150.144013,128.229158 156.540941,107.886762 C157.826038,104.458268 158.508746,100.42711 157.836078,96.3582847 L157.683249,95.5441849 C155.170171,80.9159453 141.462468,71.316163 127.297843,73.6018255 Z M232.61846,58.0590923 L232.61846,63.3161159 L247.925394,63.3161159 L247.925394,69.2588383 L232.846922,69.2588383 L232.846922,74.7444281 L247.925394,74.7444281 L247.925394,80.6871505 L242.670775,80.6871505 L242.670775,86.1727403 L247.925394,86.1727403 L247.925394,92.1154627 L242.670775,92.1154627 L242.670775,106.28657 C242.670775,112.229292 238.330003,115.657786 232.389998,115.657786 L222.109222,115.657786 L222.109222,109.715063 L231.704613,109.715063 C234.217692,109.715063 236.045385,108.343666 236.045385,105.600871 L236.045385,92.3440289 L211.828445,92.3440289 L211.828445,86.4013066 L236.045385,86.4013066 L236.045385,80.9157167 L208.858443,80.9157167 L208.858443,105.143739 C208.858443,109.94363 204.974594,113.829256 200.176898,113.829256 L191.723815,113.829256 C187.154581,113.829256 183.270732,109.94363 183.270732,105.143739 L183.270732,72.2301995 C183.270732,67.6588746 186.926119,63.7732484 191.723815,63.7732484 L200.176898,63.7732484 C205.431517,63.7732484 209.315366,67.6588746 208.858443,72.4587657 L208.858443,74.9729944 L226.221532,74.9729944 L226.221532,69.4874045 L211.371521,69.4874045 L211.371521,63.5446822 L226.221532,63.5446822 L226.221532,58.0590923 L232.61846,58.0590923 Z M285.393571,58.0593209 L285.393571,74.9732229 L298.415888,74.9732229 C306.221663,74.9732229 311.414893,80.200704 311.657764,86.8284031 L311.666667,87.3158001 L311.666667,106.058232 C311.666667,111.160637 307.362258,114.971129 301.886798,115.190862 L301.38589,115.200882 L298.415888,115.200882 L298.415888,109.715292 L300.700505,109.715292 C303.297754,109.715292 304.664727,108.279313 304.801424,106.379071 L304.812816,106.058232 L304.812816,88.6871976 C304.812816,84.2735046 302.04411,81.3513354 298.151764,81.1550547 L297.730503,81.1445115 L266.659711,81.1445115 C262.689204,81.1445115 258.931674,83.4883347 258.677256,87.5587988 L258.663551,88.0014988 L258.663551,115.429448 L252.266623,115.429448 L252.266623,87.0872339 C252.266623,80.8397565 257.709426,75.463526 264.982046,75.2110567 L265.517402,75.2017892 L278.082796,75.2017892 L278.082796,58.0593209 L285.393571,58.0593209 Z M297.502041,98.7438837 C297.502041,107.200835 290.419728,114.286388 281.966645,114.286388 C273.513562,114.286388 266.431249,107.200835 266.431249,98.7438837 C266.431249,90.2869327 273.2851,83.2013792 281.738183,83.2013792 C290.419728,82.7442467 297.273579,89.8298002 297.502041,98.7438837 Z M280.366956,89.1441015 C275.112337,90.0583665 271.913873,95.3153901 272.82772,99.886715 C274.426952,107.200835 281.737726,106.28657 283.108497,105.372305 C283.56542,104.915172 283.793882,105.372305 283.56542,105.600871 L283.438201,105.973374 C283.148794,106.790682 282.537009,108.293355 281.381213,109.59445 L281.052341,109.94363 C278.996186,112.000726 288.363116,108.572232 290.647733,101.258112 C291.333118,99.886715 291.333118,98.5153175 291.104656,96.9153538 C290.419271,91.6583302 285.621575,88.4584028 280.366956,89.1441015 Z M202.68952,92.1156912 L190.352588,92.1156912 L190.352588,105.143967 L190.366678,105.463997 C190.50688,107.049492 191.682902,108.394232 193.423916,108.556131 L193.779513,108.572461 L199.262594,108.572461 L199.582478,108.558364 C201.167248,108.418098 202.511373,107.241538 202.673198,105.499727 L202.68952,105.143967 L202.68952,92.1156912 Z M225.993527,96.686559 L225.993527,105.14351 L216.398136,105.14351 L216.398136,96.686559 L225.993527,96.686559 Z M199.262594,69.7155136 L193.779513,69.7155136 L193.495343,69.72961 C192.061216,69.8704262 190.542728,71.0556802 190.369045,72.8087658 L190.352588,73.1440073 L190.352588,86.4008494 L202.68952,86.4008494 L202.68952,73.1440073 L202.67543,72.8239773 C202.525881,71.1327825 201.197799,69.7155136 199.262594,69.7155136 Z M310.067435,63.3158874 L310.067435,69.487176 L291.562037,69.487176 L291.562037,63.3158874 L310.067435,63.3158874 Z M272.142792,63.3158874 L272.142792,69.2586097 L253.637394,69.2586097 L253.637394,63.3158874 L272.142792,63.3158874 Z"></path>
</svg>