<svg viewBox="0 0 400 200" version="1.1" xmlns="http://www.w3.org/2000/svg" xmlns:xlink="http://www.w3.org/1999/xlink" style="fill: var(--Text-3); display: block;">
  <path d="M58.704634,114.33871 L56.8062695,107.384743 C49.0229751,109.787023 46.1121495,108.143358 46.1121495,102.137658 L46.1121495,91.264182 L57.3757788,91.264182 L57.3757788,83.4251642 L46.1121495,83.4251642 L46.1121495,74.1321349 L37,74.8275317 L37,102.264094 C37,105.993949 37.4429517,108.838754 38.8350857,111.05138 C42.0623053,116.235247 49.0862539,117.373169 58.704634,114.33871 Z M78.3843458,115.982375 C85.7879673,115.982375 91.6096184,111.999649 93.12831,105.993949 L84.522391,105.993949 C83.3200935,107.76405 80.9154984,108.96519 78.4476246,108.96519 C74.0813863,108.96519 71.0440031,106.689346 71.0440031,102.264094 L93.3181464,102.264094 C94.5837227,90.4423495 88.3823988,82.5401138 77.7515576,82.5401138 C68.323014,82.5401138 62.12169,89.1147739 62.12169,99.4825072 C62.12169,109.534151 68.323014,115.982375 78.3843458,115.982375 Z M71.1072819,95.9423056 C71.1072819,91.9595788 73.8915498,89.5572991 77.7515576,89.5572991 C81.5482866,89.5572991 84.3958333,91.9595788 84.3958333,95.9423056 L71.1072819,95.9423056 Z M113.630646,115.982375 C117.17426,115.982375 120.528037,114.528364 122.806075,112.315738 L123.122469,112.315738 L123.122469,115.034107 L131.475273,115.034107 L131.475273,83.4251642 L123.122469,83.4251642 L123.122469,86.3331869 L122.806075,86.3331869 C120.528037,84.057343 117.17426,82.6033317 113.630646,82.6033317 C105.910631,82.6033317 99.5194704,89.620517 99.5194704,98.1549316 L99.5194704,100.430776 C99.5194704,109.028408 105.847352,115.982375 113.630646,115.982375 Z M115.465732,107.637615 C111.352609,107.637615 108.125389,104.413502 108.125389,100.367558 L108.125389,98.2813674 C108.125389,94.1722048 111.352609,91.0113105 115.465732,91.0113105 C119.389019,91.0113105 122.742796,94.1089869 122.742796,98.2813674 L122.742796,100.367558 C122.742796,104.413502 119.452298,107.637615 115.465732,107.637615 Z M140.334307,115.034107 L148.750389,115.034107 L148.750389,96.1951772 C148.813668,93.2871544 150.712033,90.8848747 154.002531,90.8848747 C157.103193,90.8848747 159.317952,93.0342829 159.317952,96.3216129 L159.317952,115.034107 L167.734034,115.034107 L167.734034,96.3216129 C167.734034,93.0342829 169.948793,90.8848747 173.049455,90.8848747 C176.150117,90.8848747 178.301597,93.0342829 178.301597,96.3216129 L178.301597,115.034107 L186.717679,115.034107 L186.717679,95.2469089 C186.717679,87.6607625 182.098326,82.6033317 175.390771,82.6033317 C171.973715,82.6033317 168.430101,84.6895219 166.088785,88.2929414 C163.810748,84.626304 160.520249,82.6033317 156.72352,82.6033317 C153.939252,82.6665496 150.712033,84.057343 148.940226,86.2067512 L148.750389,86.2067512 L148.750389,83.4251642 L140.334307,83.4251642 L140.334307,115.034107 Z M212.788551,115.982375 C220.571846,115.982375 227.026285,109.028408 227.026285,100.430776 L227.026285,98.1549316 C227.026285,89.5572991 220.571846,82.6033317 212.788551,82.6033317 C209.308217,82.6033317 206.017718,84.057343 203.739681,86.2699691 L203.423287,86.2699691 L203.423287,68 L195.070483,68.5057431 L195.070483,115.034107 L203.423287,115.034107 L203.423287,112.25252 L203.676402,112.25252 C205.89116,114.528364 209.371495,115.982375 212.788551,115.982375 Z M211.080023,107.637615 C207.030179,107.637615 203.80296,104.413502 203.80296,100.367558 L203.80296,98.2813674 C203.80296,94.1722048 207.030179,91.0113105 211.080023,91.0113105 C215.066589,91.0113105 218.420366,94.1722048 218.420366,98.2813674 L218.420366,100.367558 C218.420366,104.413502 215.129868,107.637615 211.080023,107.637615 Z M238.669587,78.8734764 C241.517134,78.8734764 243.85845,76.5344146 243.85845,73.6263919 C243.85845,70.781587 241.517134,68.4425252 238.669587,68.4425252 C235.758762,68.4425252 233.417445,70.781587 233.417445,73.6263919 C233.417445,76.5344146 235.758762,78.8734764 238.669587,78.8734764 Z M234.113512,115.034107 L243.162383,115.034107 L243.162383,83.4251642 L234.113512,83.4251642 L234.113512,115.034107 Z M273.2831,114.33871 L271.384735,107.384743 C263.601441,109.787023 260.690615,108.143358 260.690615,102.137658 L260.690615,91.264182 L271.954245,91.264182 L271.954245,83.4251642 L260.690615,83.4251642 L260.690615,74.1321349 L251.578466,74.8275317 L251.578466,102.264094 C251.578466,105.993949 252.021417,108.838754 253.413551,111.05138 C256.640771,116.235247 263.66472,117.373169 273.2831,114.33871 Z M284.040498,78.8734764 C286.888045,78.8734764 289.229361,76.5344146 289.229361,73.6263919 C289.229361,70.781587 286.888045,68.4425252 284.040498,68.4425252 C281.129673,68.4425252 278.788357,70.781587 278.788357,73.6263919 C278.788357,76.5344146 281.129673,78.8734764 284.040498,78.8734764 Z M279.484424,115.034107 L288.533294,115.034107 L288.533294,83.4251642 L279.484424,83.4251642 L279.484424,115.034107 Z M311.187111,115.982375 C320.425818,115.982375 326.563863,109.534151 326.563863,99.7985967 L326.563863,98.7238926 C326.563863,88.9883382 320.425818,82.5401138 311.187111,82.5401138 C301.758567,82.5401138 295.493964,88.9883382 295.493964,98.7238926 L295.493964,99.7985967 C295.493964,109.534151 301.758567,115.982375 311.187111,115.982375 Z M311.123832,107.890486 C306.694315,107.890486 303.72021,104.729592 303.72021,99.9882503 L303.72021,98.5342389 C303.72021,93.7928975 306.694315,90.6320032 311.123832,90.6320032 C315.49007,90.6320032 318.464174,93.7928975 318.464174,98.5342389 L318.464174,99.9882503 C318.464174,104.729592 315.49007,107.890486 311.123832,107.890486 Z M333.14486,115.034107 L333.14486,83.4251642 L341.560942,83.4251642 L341.560942,86.0803154 L341.877336,86.0803154 C342.953076,84.4998682 346.180296,82.6033317 350.103583,82.6033317 C357.254089,82.6033317 362,87.407891 362,94.61473 L362,115.034107 L353.583917,115.034107 L353.583917,96.5112666 C353.583917,93.1607186 351.179322,90.758439 347.57243,90.758439 C343.965537,90.758439 341.560942,93.2871544 341.560942,97.0170097 L341.560942,115.034107 L333.14486,115.034107 Z"></path>
</svg>