<svg viewBox="0 0 400 200" version="1.1" xmlns="http://www.w3.org/2000/svg" xmlns:xlink="http://www.w3.org/1999/xlink" style="fill: var(--Text-3); display: block;">
  <path d="M164.303603,91.4185317 C164.81007,91.4185317 165.316536,91.6712987 166.329469,92.6823665 C166.329469,93.4406674 166.329469,93.9462013 166.076236,94.7045022 C165.569769,96.7266378 165.316536,98.7487735 164.81007,101.023676 C163.797137,100.265375 163.290671,99.7598414 162.530971,99.2543074 C155.074661,94.0444996 143.471354,98.3308759 141.607617,106.855815 L141.512618,107.34285 C140.537201,111.724144 142.379655,115.167877 146.361603,116.545504 L146.830515,116.695228 C151.388712,118.211829 155.693676,117.453528 159.998639,115.178626 C160.758339,114.673092 161.264805,114.167558 162.530971,113.409257 C162.024505,116.442461 161.518038,118.97013 161.011572,121.750567 C153.921043,124.025469 146.577281,125.289304 139.233519,122.003334 C131.889757,118.717363 129.104192,110.881588 132.396224,103.045812 C133.915623,99.2543074 136.447954,96.2211039 139.993219,94.1989683 C147.590214,89.649163 155.693676,88.8908621 164.303603,91.4185317 Z M190.641373,89.9024355 C200.514934,90.6607364 205.835363,99.7603469 201.274633,109.112724 L176.713548,109.112724 C175.951316,112.651462 177.473248,114.926364 180.512046,116.190199 C186.336409,118.465102 191.651773,117.201267 196.972202,114.673597 C197.731901,114.42083 198.489069,113.915297 199.248768,113.409763 L200.008468,113.409763 C199.755234,115.684665 199.248768,117.706801 198.742302,120.234471 C193.424405,123.014907 187.853275,124.025975 182.282146,123.520441 C180.005579,123.267674 177.979714,123.014907 175.951316,122.256606 C169.367254,119.981704 166.077755,113.915297 167.343921,106.837822 C169.116553,96.9799103 177.217482,90.1552025 187.346809,89.9024355 L190.641373,89.9024355 Z M80.7366567,90.4074639 C86.5610196,92.6823665 89.3465845,98.7487735 87.5739523,106.079015 C87.5739523,107.34285 87.3207191,107.848384 87.067486,109.112219 L62.2506351,109.112219 C61.5254674,112.248827 62.8769164,114.694504 65.6442403,115.789725 L66.0491327,115.936927 C71.8734957,118.211829 77.1913923,116.947995 82.5092889,114.420325 C83.2689884,114.167558 84.0286879,113.662024 84.7883874,113.15649 L85.5480869,113.15649 C85.2948538,115.431393 84.7883874,117.453528 84.2819211,119.981198 C79.515179,122.59808 74.2998024,123.423727 68.8469134,123.301073 L67.8217649,123.267169 C66.5555991,123.267169 65.0362,123.014402 63.7700342,122.761635 C54.65364,120.739499 50.3486761,112.903723 53.134241,103.804113 C56.4262722,92.9351335 70.1008635,86.3631925 80.7366567,90.4074639 Z M344.605115,89.649163 C343.085716,96.7266378 342.072783,103.804113 340.806618,111.387121 C342.832483,109.87052 344.605115,108.859452 346.884214,107.090083 C346.159046,110.226691 346.818289,113.363299 344.016505,115.400699 L343.592182,115.68416 C340.04945,117.959062 336.501654,120.739499 332.956389,123.267169 C332.703156,123.267169 332.452455,123.267169 332.19669,123.014402 L333.959943,113.540321 C335.12294,107.28668 336.24842,101.107932 337.261353,94.7045022 C335.488721,94.4517352 334.222555,94.4517352 332.452455,94.1989683 L333.209622,89.649163 L344.605115,89.649163 Z M300.03557,78.2756609 C298.009705,92.9361445 295.226673,107.849395 292.438575,122.762646 L286.869978,122.762646 L288.068034,116.481892 C288.651423,113.369825 289.19871,110.275958 289.65301,107.091094 C288.895843,106.838327 288.386845,106.838327 287.880378,106.838327 C287.373912,106.838327 286.869978,107.091094 286.107746,107.091094 C284.84158,112.3992 283.83118,117.45454 282.565014,123.015413 L277.751051,123.015413 C280.789849,107.849395 283.575414,93.1889115 286.614212,77.5173601 C290.665943,77.770127 294.970907,76.7590592 300.03557,78.2756609 Z M351.695644,77.263582 L372.460764,77.263582 C376.362431,77.263582 377.446227,78.4355331 376.845041,81.9079807 L376.76826,82.3189212 C374.739863,92.6823665 372.969763,103.298579 370.941365,113.662024 L370.181665,117.959062 L370.181665,117.959062 C371.954298,118.211829 373.72693,118.211829 375.752795,118.464596 C375.145036,119.677878 374.699345,120.891159 374.286069,122.104441 L373.980163,123.014402 L362.078204,123.014402 L364.011783,113.158701 C364.64302,109.926526 365.254324,106.727514 365.82576,103.501971 L366.383168,100.265375 L358.786173,100.265375 C357.483831,106.54844 356.367538,112.831504 355.118352,119.432922 L354.481209,122.761635 L347.897146,122.761635 C349.163312,114.925859 350.682711,107.595617 351.948877,100.012608 C349.923012,100.012608 348.15038,100.012608 346.124514,99.7598414 C346.38028,97.9904726 346.630981,96.7266378 346.884214,94.9572691 C348.912611,94.9572691 350.682711,94.9572691 352.711109,94.7045022 L353.360671,91.6595078 C353.90239,89.102361 354.445033,86.4715212 354.987675,83.582756 L358.494135,85.548885 C359.293879,86.0020969 360.053424,86.4354117 360.812038,86.8687265 C360.609452,88.8908621 360.244796,90.9129978 359.977382,93.0645502 L359.799105,94.7045022 L367.649334,94.7045022 L368.561703,89.8351995 C368.865906,88.2013139 369.170029,86.5512512 369.473585,84.8688343 L369.928432,82.3189212 L349.923012,82.3189212 C349.416545,80.8023194 349.163312,79.2857177 348.656846,77.516349 C349.711984,77.516349 350.591266,77.3408164 351.294691,77.2823055 L351.695644,77.263582 L372.460764,77.263582 L351.695644,77.263582 Z M117.20274,89.9026883 C125.052968,90.1554552 129.357932,95.2107944 128.091766,103.04657 C127.078834,108.86021 126.065901,114.421083 125.052968,120.234723 L124.749088,121.160861 C124.647795,121.480359 124.546502,121.816033 124.445209,122.184062 L124.293269,122.762393 L114.923641,122.762393 C114.923641,121.498558 114.923641,120.48749 115.174342,119.476422 C115.936574,114.67385 116.949507,109.871278 117.706674,105.068706 L117.85563,103.486872 C118.03594,101.265738 117.938322,99.1708101 115.683341,97.738464 C112.897776,95.9690953 109.858978,96.4746292 107.073413,98.2439979 C104.287848,99.7605997 103.274915,102.288269 102.768449,105.321473 C102.00875,110.124045 100.995817,115.179384 100.236117,119.981956 L100.074611,120.592203 C99.9303618,121.149747 99.8626453,121.582467 100.094307,122.18994 L100.236117,122.509626 L90.6132568,122.509626 C92.1326559,111.640647 94.1585213,101.024434 95.9311535,89.9026883 C98.9699515,91.41929 101.502283,92.9358918 104.287848,94.7052605 C107.833113,91.41929 112.39131,89.9026883 117.20274,89.9026883 Z M318.267852,76.0005055 C318.017152,78.2754082 318.017152,80.2975438 317.761386,82.8252134 C321.05595,82.0669125 320.293718,78.5281751 322.06635,77.0115734 L327.131013,77.0115734 C326.373846,79.033709 325.864848,80.8030777 325.10768,82.5724465 L326.338515,82.8757668 C326.969856,83.027427 327.63748,83.1790872 328.397179,83.3307473 L327.640012,87.1222517 L327.640012,87.1222517 C323.588281,88.1333196 319.283317,86.6167178 315.735521,88.1333196 C315.735521,88.6388535 315.991286,89.1443874 315.991286,89.6499213 L329.412644,89.6499213 C329.156879,91.41929 328.652945,92.4303579 328.397179,93.9469596 L320.800184,93.9469596 C323.081815,97.2329301 326.373846,97.738464 329.156879,99.2550657 C328.652945,100.518901 328.146478,102.035502 327.386779,103.804871 C325.10768,103.04657 323.081815,102.288269 320.800184,101.529968 C320.549483,102.793803 320.043017,104.310405 319.789784,105.827007 C321.559884,106.079774 322.826049,106.585308 324.598682,106.838074 C324.854447,112.398948 323.332516,117.454287 322.322115,122.762393 L307.887825,122.762393 C307.632059,121.498558 307.128125,120.234723 306.621659,118.718122 L317.001686,118.718122 C317.510685,115.937685 317.761386,113.662782 318.267852,110.882346 L299.784363,110.882346 C300.290829,108.101909 300.54153,105.57424 301.050529,102.793803 C299.53113,103.04657 298.264964,103.552104 296.236566,103.804871 C296.492332,102.035502 296.996266,100.266134 297.252031,99.0022988 C300.035064,97.738464 302.567396,96.2218622 305.099727,95.2107944 C305.099727,94.9580274 304.849027,94.7052605 304.849027,94.4524935 C302.823161,94.1997266 300.54153,94.1997266 298.264964,94.1997266 C298.518197,92.6831248 298.768898,91.41929 299.024664,90.4082222 C302.567396,88.8916204 306.365893,91.1665231 309.404691,88.6388535 C309.404691,88.3860865 309.404691,87.8805526 309.153991,87.6277856 L299.275364,87.6277856 C300.54153,85.8584169 300.54153,84.5945821 300.797296,83.3307473 C302.316695,83.0779804 303.073862,82.8252134 304.340028,82.5724465 C304.089327,80.8030777 303.582861,79.033709 303.329628,77.0115734 L308.394291,77.0115734 C310.164391,78.7809421 308.647524,81.8141456 311.686322,83.0779804 C312.192789,80.5503108 312.446022,78.2754082 312.952488,76.0005055 L318.267852,76.0005055 Z M24.2661659,76 L67.8222714,76 L67.1910342,79.0309927 C66.993911,79.9882647 66.8167216,80.9123748 66.6793998,81.8630144 L66.5561055,82.8247079 L49.589483,82.8247079 C47.3736928,94.5467756 45.3517842,106.075319 43.6917072,117.749005 L43.0028882,122.761887 L33.1293269,122.761887 C34.817548,111.598013 36.8574819,100.609672 38.8094876,89.5043088 L39.9666225,82.8247079 L23,82.8247079 C23.434114,80.658134 23.8663675,78.8629727 24.1420742,76.9616935 L24.2661659,76 Z M255.214312,81.3086117 L263.214413,87.6889508 C266.707997,90.4804413 270.118893,93.2247683 273.4471,95.9690953 C273.4471,96.1586705 273.304657,96.3482457 273.233435,96.5378209 L273.193867,96.7273961 L262.304841,96.7273961 C261.545141,101.150818 260.785442,105.447856 260.025742,109.713299 L257.746644,122.509626 L247.87055,122.509626 C249.389949,113.915549 250.656115,105.827007 252.175514,96.9801631 L250.545372,96.9742677 C249.260748,96.9595291 248.123783,96.907944 246.857617,96.7273961 C246.053702,95.4435005 245.249788,94.2615013 244.316242,92.9226139 L242.552653,90.4082222 L253.44168,90.4082222 L253.8817,87.8525493 C254.258228,85.7449297 254.671669,83.6557334 255.214312,81.3086117 Z M234.702425,90.1546969 C239.767089,91.4185317 243.05912,94.9572691 242.552653,100.265375 C242.102461,106.781146 240.851927,113.296916 239.69032,119.990213 L239.260622,122.508868 L229.384528,122.508868 L229.840348,118.923621 C229.941641,118.151165 230.042935,117.402975 230.144228,116.695228 C230.903928,112.903723 231.410394,108.859452 232.170093,105.067947 C232.423327,103.551346 232.67656,102.034744 232.423327,100.770909 C232.170093,98.7487735 230.903928,97.4849387 228.624829,96.9794048 C223.560166,95.71557 218.748735,98.7487735 217.735803,103.804113 C216.976103,107.785192 216.358847,111.62409 215.67037,115.534079 L214.950238,119.475664 L214.190538,122.508868 L204.567678,122.508868 C206.087077,111.892655 208.112942,101.276443 209.885574,90.1546969 L214.000613,92.4295995 C215.393396,93.1879004 216.849486,93.9462013 218.495502,94.7045022 C223.306932,90.4074639 228.624829,88.8908621 234.702425,90.1546969 Z M315.73704,112.651967 C315.652629,113.157501 315.568218,113.606865 315.483807,114.028143 L314.977341,116.443472 L296.744552,116.443472 L295.984853,112.651967 L315.73704,112.651967 Z M314.725627,101.529716 L304.847001,101.529716 L305.157828,101.825961 C305.751457,102.365394 306.185881,102.613003 306.622165,103.046317 C306.622165,103.804618 306.763184,104.420738 306.833694,105.107948 L306.872866,105.826754 L313.963395,105.826754 L314.534594,102.627672 C314.598061,102.272219 314.661685,101.908866 314.725627,101.529716 Z M177.724455,102.793045 L193.424912,102.793045 C194.184611,99.2543074 192.665212,96.7266378 189.626414,95.968337 C184.561751,94.7045022 179.497087,97.2321718 177.724455,102.793045 Z M63.5178139,102.793045 L79.2182706,102.793045 C79.9779701,98.2432396 77.9521047,95.968337 73.3913753,95.4628031 C68.5824774,95.2100361 63.7685148,98.7487735 63.5178139,102.793045 Z M289.147051,93.9462013 C288.49588,96.3294326 288.030757,98.5269576 287.592214,101.016307 L287.374418,102.287511 L290.919683,102.287511 L291.197226,100.647559 C291.537572,98.4960066 291.780676,96.4738709 292.185849,94.4517352 L291.361918,94.2409733 C290.697458,94.075164 290.051455,93.9462013 289.147051,93.9462013 Z M309.946661,96.9737486 L309.660457,97.2329301 L317.001686,97.2329301 L316.573196,96.5029391 C316.030993,95.5646681 315.584087,94.7558139 314.978353,93.9469596 C312.347542,93.4695109 311.521494,95.4721429 309.946661,96.9737486 Z M294.466467,82.0666598 C292.944535,82.3194267 292.187368,82.3194267 291.171903,82.3194267 C291.011454,83.9371353 290.745207,85.4513105 290.441536,86.994475 L289.905737,89.6496685 L293.200301,89.6496685 L293.200301,89.3969016 L293.539514,87.5406442 L293.976149,84.830311 C294.121872,83.9268666 294.276542,83.0145359 294.466467,82.0666598 Z M343.845922,76.2525142 C344.656268,79.0835041 345.304545,81.9144941 346.050064,84.8749007 L346.631487,87.1214934 L340.047425,87.1214934 L339.135785,82.8588314 C338.831905,81.4271594 338.528025,79.9793102 338.224146,78.4991069 L337.768326,76.2525142 L343.845922,76.2525142 Z"></path>
</svg>