<svg viewBox="0 0 86 86" fill="none" xmlns="http://www.w3.org/2000/svg">
<path d="M9.6 4.5H76.4C78.0884 4.5 79.3246 4.50039 80.3001 4.58008C81.2697 4.6593 81.9374 4.81438 82.4969 5.09946C83.5318 5.62677 84.3732 6.46816 84.9005 7.50305C85.1856 8.06255 85.3407 8.73034 85.4199 9.69993C85.4996 10.6754 85.5 11.9116 85.5 13.6V72.4C85.5 74.0884 85.4996 75.3246 85.4199 76.3001C85.3407 77.2697 85.1856 77.9374 84.9005 78.4969C84.3732 79.5318 83.5318 80.3732 82.4969 80.9005C81.9374 81.1856 81.2697 81.3407 80.3001 81.4199C79.3246 81.4996 78.0884 81.5 76.4 81.5H9.6C7.91159 81.5 6.67536 81.4996 5.69993 81.4199C4.73034 81.3407 4.06255 81.1856 3.50305 80.9005C2.46816 80.3732 1.62677 79.5318 1.09946 78.4969C0.814384 77.9374 0.659303 77.2697 0.580085 76.3001C0.500389 75.3246 0.5 74.0884 0.5 72.4V13.6C0.5 11.9116 0.500389 10.6754 0.580085 9.69993C0.659303 8.73034 0.814384 8.06255 1.09946 7.50305C1.62677 6.46816 2.46816 5.62677 3.50305 5.09946C4.06255 4.81438 4.73034 4.6593 5.69993 4.58008C6.67536 4.50039 7.91159 4.5 9.6 4.5Z" stroke="var(--Text-1)"/>
<path d="M0 13.6C0 10.2397 0 8.55953 0.653961 7.27606C1.2292 6.14708 2.14708 5.2292 3.27606 4.65396C4.55953 4 6.23969 4 9.6 4H28V82H9.6C6.23969 82 4.55953 82 3.27606 81.346C2.14708 80.7708 1.2292 79.8529 0.653961 78.7239C0 77.4405 0 75.7603 0 72.4V13.6Z" fill="var(--Text-3)" fill-opacity="0.4"/>
<path d="M7 12.5C6.17157 12.5 5.5 11.8284 5.5 11C5.5 10.1716 6.17157 9.5 7 9.5C7.82843 9.5 8.5 10.1716 8.5 11C8.5 11.8284 7.82843 12.5 7 12.5Z" stroke="var(--Text-1)"/>
<path d="M13 12.5C12.1716 12.5 11.5 11.8284 11.5 11C11.5 10.1716 12.1716 9.5 13 9.5C13.8284 9.5 14.5 10.1716 14.5 11C14.5 11.8284 13.8284 12.5 13 12.5Z" stroke="var(--Text-1)"/>
<path d="M19 12.5C18.1716 12.5 17.5 11.8284 17.5 11C17.5 10.1716 18.1716 9.5 19 9.5C19.8284 9.5 20.5 10.1716 20.5 11C20.5 11.8284 19.8284 12.5 19 12.5Z" stroke="var(--Text-1)"/>
</svg>
