<svg viewBox="0 0 86 86" fill="none"
  xmlns="http://www.w3.org/2000/svg">
  <path d="M13.6 8.5H72.4C74.0884 8.5 75.3246 8.50039 76.3001 8.58008C77.2697 8.6593 77.9374 8.81438 78.4969 9.09946C79.5318 9.62677 80.3732 10.4682 80.9005 11.5031C81.1856 12.0626 81.3407 12.7303 81.4199 13.6999C81.4996 14.6754 81.5 15.9116 81.5 17.6V68.4C81.5 70.0884 81.4996 71.3246 81.4199 72.3001C81.3407 73.2697 81.1856 73.9374 80.9005 74.4969C80.3732 75.5318 79.5318 76.3732 78.4969 76.9005C77.9374 77.1856 77.2697 77.3407 76.3001 77.4199C75.3246 77.4996 74.0884 77.5 72.4 77.5H13.6C11.9116 77.5 10.6754 77.4996 9.69993 77.4199C8.73034 77.3407 8.06255 77.1856 7.50305 76.9005C6.46816 76.3732 5.62677 75.5318 5.09946 74.4969C4.81438 73.9374 4.6593 73.2697 4.58008 72.3001C4.50039 71.3246 4.5 70.0884 4.5 68.4V17.6C4.5 15.9116 4.50039 14.6754 4.58008 13.6999C4.6593 12.7303 4.81438 12.0626 5.09946 11.5031C5.62677 10.4682 6.46816 9.62677 7.50305 9.09946C8.06255 8.81438 8.73034 8.6593 9.69993 8.58008C10.6754 8.50039 11.9116 8.5 13.6 8.5Z" stroke="var(--Text-1)"/>
  <path d="M4 17.6C4 14.2397 4 12.5595 4.65396 11.2761C5.2292 10.1471 6.14708 9.2292 7.27606 8.65396C8.55953 8 10.2397 8 13.6 8H32V78H13.6C10.2397 78 8.55953 78 7.27606 77.346C6.14708 76.7708 5.2292 75.8529 4.65396 74.7239C4 73.4405 4 71.7603 4 68.4V17.6Z" fill="var(--Text-3)" fill-opacity="0.4"/>
  <path d="M10 15.5C9.17157 15.5 8.5 14.8284 8.5 14C8.5 13.1716 9.17157 12.5 10 12.5C10.8284 12.5 11.5 13.1716 11.5 14C11.5 14.8284 10.8284 15.5 10 15.5Z" fill="var(--BG-P)" stroke="var(--Text-1)"/>
  <path d="M16 15.5C15.1716 15.5 14.5 14.8284 14.5 14C14.5 13.1716 15.1716 12.5 16 12.5C16.8284 12.5 17.5 13.1716 17.5 14C17.5 14.8284 16.8284 15.5 16 15.5Z" fill="var(--BG-P)" stroke="var(--Text-1)"/>
  <path d="M22 15.5C21.1716 15.5 20.5 14.8284 20.5 14C20.5 13.1716 21.1716 12.5 22 12.5C22.8284 12.5 23.5 13.1716 23.5 14C23.5 14.8284 22.8284 15.5 22 15.5Z" fill="var(--BG-P)" stroke="var(--Text-1)"/>
</svg>
